<svg width="267" height="128" viewBox="0 0 267 128" fill="none" xmlns="http://www.w3.org/2000/svg">
<g filter="url(#filter0_d_739:3550)">
<path fill-rule="evenodd" clip-rule="evenodd" d="M41 30C34.9249 30 30 34.9249 30 41V79.1626C30 85.2378 34.9249 90.1626 41 90.1626H194.73L202.148 97.6758L209.566 90.1626H225.713C231.788 90.1626 236.713 85.2378 236.713 79.1626V41C236.713 34.9249 231.788 30 225.713 30H41Z" fill="#F5FAFF"/>
</g>
<path d="M57.1083 45.9411V54.3411H56.2563V47.6211L52.9563 53.2731H52.5363L49.2363 47.6571V54.3411H48.3843V45.9411H49.1163L52.7643 52.1691L56.3763 45.9411H57.1083ZM62.3869 50.2611C63.1789 50.2691 63.7829 50.4451 64.1989 50.7891C64.6149 51.1331 64.8229 51.6291 64.8229 52.2771C64.8229 52.9491 64.5989 53.4651 64.1509 53.8251C63.7029 54.1851 63.0629 54.3611 62.2309 54.3531L59.7349 54.3411V48.0291H60.5869V50.2371L62.3869 50.2611ZM65.8789 48.0291H66.7309V54.3411H65.8789V48.0291ZM62.1829 53.7051C62.7669 53.7131 63.2069 53.5971 63.5029 53.3571C63.8069 53.1091 63.9589 52.7491 63.9589 52.2771C63.9589 51.8131 63.8109 51.4691 63.5149 51.2451C63.2189 51.0211 62.7749 50.9051 62.1829 50.8971L60.5869 50.8731V53.6811L62.1829 53.7051ZM74.9014 54.4011C74.2934 54.4011 73.7454 54.2651 73.2574 53.9931C72.7694 53.7131 72.3854 53.3291 72.1054 52.8411C71.8254 52.3531 71.6854 51.8011 71.6854 51.1851C71.6854 50.5691 71.8254 50.0171 72.1054 49.5291C72.3854 49.0411 72.7694 48.6611 73.2574 48.3891C73.7454 48.1171 74.2934 47.9811 74.9014 47.9811C75.5094 47.9811 76.0574 48.1171 76.5454 48.3891C77.0334 48.6611 77.4134 49.0411 77.6854 49.5291C77.9654 50.0171 78.1054 50.5691 78.1054 51.1851C78.1054 51.8011 77.9654 52.3531 77.6854 52.8411C77.4134 53.3291 77.0334 53.7131 76.5454 53.9931C76.0574 54.2651 75.5094 54.4011 74.9014 54.4011ZM74.9014 53.6451C75.3494 53.6451 75.7494 53.5451 76.1014 53.3451C76.4614 53.1371 76.7414 52.8451 76.9414 52.4691C77.1414 52.0931 77.2414 51.6651 77.2414 51.1851C77.2414 50.7051 77.1414 50.2771 76.9414 49.9011C76.7414 49.5251 76.4614 49.2371 76.1014 49.0371C75.7494 48.8291 75.3494 48.7251 74.9014 48.7251C74.4534 48.7251 74.0494 48.8291 73.6894 49.0371C73.3374 49.2371 73.0574 49.5251 72.8494 49.9011C72.6494 50.2771 72.5494 50.7051 72.5494 51.1851C72.5494 51.6651 72.6494 52.0931 72.8494 52.4691C73.0574 52.8451 73.3374 53.1371 73.6894 53.3451C74.0494 53.5451 74.4534 53.6451 74.9014 53.6451ZM79.9264 48.0291H80.7784V50.8251H84.7504V48.0291H85.6024V54.3411H84.7504V51.5571H80.7784V54.3411H79.9264V48.0291ZM93.184 48.0291V54.3411H92.332V48.7851H89.308L89.224 50.3451C89.16 51.6571 89.008 52.6651 88.768 53.3691C88.528 54.0731 88.1 54.4251 87.484 54.4251C87.316 54.4251 87.112 54.3931 86.872 54.3291L86.932 53.5971C87.076 53.6291 87.176 53.6451 87.232 53.6451C87.56 53.6451 87.808 53.4931 87.976 53.1891C88.144 52.8851 88.256 52.5091 88.312 52.0611C88.368 51.6131 88.416 51.0211 88.456 50.2851L88.564 48.0291H93.184ZM97.778 47.9811C98.602 47.9811 99.234 48.1891 99.674 48.6051C100.114 49.0131 100.334 49.6211 100.334 50.4291V54.3411H99.518V53.3571C99.326 53.6851 99.042 53.9411 98.666 54.1251C98.298 54.3091 97.858 54.4011 97.346 54.4011C96.642 54.4011 96.082 54.2331 95.666 53.8971C95.25 53.5611 95.042 53.1171 95.042 52.5651C95.042 52.0291 95.234 51.5971 95.618 51.2691C96.01 50.9411 96.63 50.7771 97.478 50.7771H99.482V50.3931C99.482 49.8491 99.33 49.4371 99.026 49.1571C98.722 48.8691 98.278 48.7251 97.694 48.7251C97.294 48.7251 96.91 48.7931 96.542 48.9291C96.174 49.0571 95.858 49.2371 95.594 49.4691L95.21 48.8331C95.53 48.5611 95.914 48.3531 96.362 48.2091C96.81 48.0571 97.282 47.9811 97.778 47.9811ZM97.478 53.7291C97.958 53.7291 98.37 53.6211 98.714 53.4051C99.058 53.1811 99.314 52.8611 99.482 52.4451V51.4131H97.502C96.422 51.4131 95.882 51.7891 95.882 52.5411C95.882 52.9091 96.022 53.2011 96.302 53.4171C96.582 53.6251 96.974 53.7291 97.478 53.7291ZM102.602 48.0291H103.454V53.0451L107.666 48.0291H108.422V54.3411H107.57V49.3251L103.37 54.3411H102.602V48.0291ZM105.47 47.1171C104.926 47.1171 104.494 46.9811 104.174 46.7091C103.854 46.4371 103.69 46.0531 103.682 45.5571H104.294C104.302 45.8691 104.414 46.1211 104.63 46.3131C104.846 46.4971 105.126 46.5891 105.47 46.5891C105.814 46.5891 106.094 46.4971 106.31 46.3131C106.534 46.1211 106.65 45.8691 106.658 45.5571H107.27C107.262 46.0531 107.094 46.4371 106.766 46.7091C106.446 46.9811 106.014 47.1171 105.47 47.1171ZM110.864 48.0291H111.716V50.8251H115.688V48.0291H116.54V54.3411H115.688V51.5571H111.716V54.3411H110.864V48.0291ZM118.806 45.9411H119.814L119.634 51.8211H118.974L118.806 45.9411ZM119.31 54.4011C119.134 54.4011 118.982 54.3411 118.854 54.2211C118.734 54.0931 118.674 53.9451 118.674 53.7771C118.674 53.6011 118.734 53.4571 118.854 53.3451C118.974 53.2251 119.126 53.1651 119.31 53.1651C119.486 53.1651 119.634 53.2251 119.754 53.3451C119.874 53.4571 119.934 53.6011 119.934 53.7771C119.934 53.9451 119.874 54.0931 119.754 54.2211C119.634 54.3411 119.486 54.4011 119.31 54.4011ZM135.044 61.9411H141.188V62.6971H135.92V65.4451H138.668C139.66 65.4451 140.412 65.6491 140.924 66.0571C141.444 66.4651 141.704 67.0571 141.704 67.8331C141.704 68.6411 141.424 69.2611 140.864 69.6931C140.312 70.1251 139.516 70.3411 138.476 70.3411H135.044V61.9411ZM138.464 69.6331C139.24 69.6331 139.824 69.4851 140.216 69.1891C140.616 68.8931 140.816 68.4531 140.816 67.8691C140.816 67.2931 140.62 66.8651 140.228 66.5851C139.844 66.2971 139.256 66.1531 138.464 66.1531H135.92V69.6331H138.464ZM149.079 67.4491H143.799C143.847 68.1051 144.099 68.6371 144.555 69.0451C145.011 69.4451 145.587 69.6451 146.283 69.6451C146.675 69.6451 147.035 69.5771 147.363 69.4411C147.691 69.2971 147.975 69.0891 148.215 68.8171L148.695 69.3691C148.415 69.7051 148.063 69.9611 147.639 70.1371C147.223 70.3131 146.763 70.4011 146.259 70.4011C145.611 70.4011 145.035 70.2651 144.531 69.9931C144.035 69.7131 143.647 69.3291 143.367 68.8411C143.087 68.3531 142.947 67.8011 142.947 67.1851C142.947 66.5691 143.079 66.0171 143.343 65.5291C143.615 65.0411 143.983 64.6611 144.447 64.3891C144.919 64.1171 145.447 63.9811 146.031 63.9811C146.615 63.9811 147.139 64.1171 147.603 64.3891C148.067 64.6611 148.431 65.0411 148.695 65.5291C148.959 66.0091 149.091 66.5611 149.091 67.1851L149.079 67.4491ZM146.031 64.7131C145.423 64.7131 144.911 64.9091 144.495 65.3011C144.087 65.6851 143.855 66.1891 143.799 66.8131H148.275C148.219 66.1891 147.983 65.6851 147.567 65.3011C147.159 64.9091 146.647 64.7131 146.031 64.7131ZM153.873 67.0531C154.321 67.1571 154.665 67.3371 154.905 67.5931C155.153 67.8491 155.277 68.1611 155.277 68.5291C155.277 68.8971 155.149 69.2251 154.893 69.5131C154.645 69.8011 154.305 70.0251 153.873 70.1851C153.441 70.3371 152.965 70.4131 152.445 70.4131C151.989 70.4131 151.541 70.3491 151.101 70.2211C150.661 70.0851 150.277 69.8891 149.949 69.6331L150.237 68.9971C150.525 69.2131 150.861 69.3811 151.245 69.5011C151.629 69.6211 152.017 69.6811 152.409 69.6811C152.993 69.6811 153.469 69.5731 153.837 69.3571C154.213 69.1331 154.401 68.8331 154.401 68.4571C154.401 68.1211 154.249 67.8611 153.945 67.6771C153.641 67.4851 153.225 67.3891 152.697 67.3891H151.617V66.7651H152.649C153.121 66.7651 153.501 66.6771 153.789 66.5011C154.077 66.3171 154.221 66.0731 154.221 65.7691C154.221 65.4331 154.057 65.1691 153.729 64.9771C153.409 64.7851 152.989 64.6891 152.469 64.6891C151.789 64.6891 151.117 64.8611 150.453 65.2051L150.213 64.5451C150.965 64.1531 151.745 63.9571 152.553 63.9571C153.033 63.9571 153.465 64.0291 153.849 64.1731C154.241 64.3091 154.545 64.5051 154.761 64.7611C154.985 65.0171 155.097 65.3131 155.097 65.6491C155.097 65.9691 154.985 66.2531 154.761 66.5011C154.545 66.7491 154.249 66.9331 153.873 67.0531ZM163.424 67.0531C163.872 67.1571 164.216 67.3371 164.456 67.5931C164.704 67.8491 164.828 68.1611 164.828 68.5291C164.828 68.8971 164.7 69.2251 164.444 69.5131C164.196 69.8011 163.856 70.0251 163.424 70.1851C162.992 70.3371 162.516 70.4131 161.996 70.4131C161.54 70.4131 161.092 70.3491 160.652 70.2211C160.212 70.0851 159.828 69.8891 159.5 69.6331L159.788 68.9971C160.076 69.2131 160.412 69.3811 160.796 69.5011C161.18 69.6211 161.568 69.6811 161.96 69.6811C162.544 69.6811 163.02 69.5731 163.388 69.3571C163.764 69.1331 163.952 68.8331 163.952 68.4571C163.952 68.1211 163.8 67.8611 163.496 67.6771C163.192 67.4851 162.776 67.3891 162.248 67.3891H161.168V66.7651H162.2C162.672 66.7651 163.052 66.6771 163.34 66.5011C163.628 66.3171 163.772 66.0731 163.772 65.7691C163.772 65.4331 163.608 65.1691 163.28 64.9771C162.96 64.7851 162.54 64.6891 162.02 64.6891C161.34 64.6891 160.668 64.8611 160.004 65.2051L159.764 64.5451C160.516 64.1531 161.296 63.9571 162.104 63.9571C162.584 63.9571 163.016 64.0291 163.4 64.1731C163.792 64.3091 164.096 64.5051 164.312 64.7611C164.536 65.0171 164.648 65.3131 164.648 65.6491C164.648 65.9691 164.536 66.2531 164.312 66.5011C164.096 66.7491 163.8 66.9331 163.424 67.0531ZM170.782 67.0771C171.638 67.2771 172.066 67.7931 172.066 68.6251C172.066 69.1771 171.862 69.6011 171.454 69.8971C171.046 70.1931 170.438 70.3411 169.63 70.3411H166.762V64.0291H169.546C170.266 64.0291 170.83 64.1691 171.238 64.4491C171.646 64.7291 171.85 65.1291 171.85 65.6491C171.85 65.9931 171.754 66.2891 171.562 66.5371C171.378 66.7771 171.118 66.9571 170.782 67.0771ZM167.59 66.8371H169.486C169.974 66.8371 170.346 66.7451 170.602 66.5611C170.866 66.3771 170.998 66.1091 170.998 65.7571C170.998 65.4051 170.866 65.1411 170.602 64.9651C170.346 64.7891 169.974 64.7011 169.486 64.7011H167.59V66.8371ZM169.594 69.6691C170.138 69.6691 170.546 69.5811 170.818 69.4051C171.09 69.2291 171.226 68.9531 171.226 68.5771C171.226 68.2011 171.102 67.9251 170.854 67.7491C170.606 67.5651 170.214 67.4731 169.678 67.4731H167.59V69.6691H169.594ZM176.667 70.4011C176.059 70.4011 175.511 70.2651 175.023 69.9931C174.535 69.7131 174.151 69.3291 173.871 68.8411C173.591 68.3531 173.451 67.8011 173.451 67.1851C173.451 66.5691 173.591 66.0171 173.871 65.5291C174.151 65.0411 174.535 64.6611 175.023 64.3891C175.511 64.1171 176.059 63.9811 176.667 63.9811C177.275 63.9811 177.823 64.1171 178.311 64.3891C178.799 64.6611 179.179 65.0411 179.451 65.5291C179.731 66.0171 179.871 66.5691 179.871 67.1851C179.871 67.8011 179.731 68.3531 179.451 68.8411C179.179 69.3291 178.799 69.7131 178.311 69.9931C177.823 70.2651 177.275 70.4011 176.667 70.4011ZM176.667 69.6451C177.115 69.6451 177.515 69.5451 177.867 69.3451C178.227 69.1371 178.507 68.8451 178.707 68.4691C178.907 68.0931 179.007 67.6651 179.007 67.1851C179.007 66.7051 178.907 66.2771 178.707 65.9011C178.507 65.5251 178.227 65.2371 177.867 65.0371C177.515 64.8291 177.115 64.7251 176.667 64.7251C176.219 64.7251 175.815 64.8291 175.455 65.0371C175.103 65.2371 174.823 65.5251 174.615 65.9011C174.415 66.2771 174.315 66.7051 174.315 67.1851C174.315 67.6651 174.415 68.0931 174.615 68.4691C174.823 68.8451 175.103 69.1371 175.455 69.3451C175.815 69.5451 176.219 69.6451 176.667 69.6451ZM181.692 64.0291H182.544V66.8251H186.516V64.0291H187.368V70.3411H186.516V67.5571H182.544V70.3411H181.692V64.0291ZM192.082 67.5331H190.642V70.3411H189.79V64.0291H190.642V66.8011H192.094L194.314 64.0291H195.238L192.754 67.0891L195.418 70.3411H194.41L192.082 67.5331ZM198.817 63.9811C199.641 63.9811 200.273 64.1891 200.713 64.6051C201.153 65.0131 201.373 65.6211 201.373 66.4291V70.3411H200.557V69.3571C200.365 69.6851 200.081 69.9411 199.705 70.1251C199.337 70.3091 198.897 70.4011 198.385 70.4011C197.681 70.4011 197.121 70.2331 196.705 69.8971C196.289 69.5611 196.081 69.1171 196.081 68.5651C196.081 68.0291 196.273 67.5971 196.657 67.2691C197.049 66.9411 197.669 66.7771 198.517 66.7771H200.521V66.3931C200.521 65.8491 200.369 65.4371 200.065 65.1571C199.761 64.8691 199.317 64.7251 198.733 64.7251C198.333 64.7251 197.949 64.7931 197.581 64.9291C197.213 65.0571 196.897 65.2371 196.633 65.4691L196.249 64.8331C196.569 64.5611 196.953 64.3531 197.401 64.2091C197.849 64.0571 198.321 63.9811 198.817 63.9811ZM198.517 69.7291C198.997 69.7291 199.409 69.6211 199.753 69.4051C200.097 69.1811 200.353 68.8611 200.521 68.4451V67.4131H198.541C197.461 67.4131 196.921 67.7891 196.921 68.5411C196.921 68.9091 197.061 69.2011 197.341 69.4171C197.621 69.6251 198.013 69.7291 198.517 69.7291ZM203.485 61.9411H204.493L204.313 67.8211H203.653L203.485 61.9411ZM203.989 70.4011C203.813 70.4011 203.661 70.3411 203.533 70.2211C203.413 70.0931 203.353 69.9451 203.353 69.7771C203.353 69.6011 203.413 69.4571 203.533 69.3451C203.653 69.2251 203.805 69.1651 203.989 69.1651C204.165 69.1651 204.313 69.2251 204.433 69.3451C204.553 69.4571 204.613 69.6011 204.613 69.7771C204.613 69.9451 204.553 70.0931 204.433 70.2211C204.313 70.3411 204.165 70.4011 203.989 70.4011Z" fill="#64D370"/>
<path d="M128.207 50.4891H126.287V54.3411H125.423V45.9411H126.287V49.7091H128.207L131.051 45.9411H132.011L128.891 50.0211L132.191 54.3411H131.171L128.207 50.4891ZM135.886 54.4011C135.278 54.4011 134.73 54.2651 134.242 53.9931C133.754 53.7131 133.37 53.3291 133.09 52.8411C132.81 52.3531 132.67 51.8011 132.67 51.1851C132.67 50.5691 132.81 50.0171 133.09 49.5291C133.37 49.0411 133.754 48.6611 134.242 48.3891C134.73 48.1171 135.278 47.9811 135.886 47.9811C136.494 47.9811 137.042 48.1171 137.53 48.3891C138.018 48.6611 138.398 49.0411 138.67 49.5291C138.95 50.0171 139.09 50.5691 139.09 51.1851C139.09 51.8011 138.95 52.3531 138.67 52.8411C138.398 53.3291 138.018 53.7131 137.53 53.9931C137.042 54.2651 136.494 54.4011 135.886 54.4011ZM135.886 53.6451C136.334 53.6451 136.734 53.5451 137.086 53.3451C137.446 53.1371 137.726 52.8451 137.926 52.4691C138.126 52.0931 138.226 51.6651 138.226 51.1851C138.226 50.7051 138.126 50.2771 137.926 49.9011C137.726 49.5251 137.446 49.2371 137.086 49.0371C136.734 48.8291 136.334 48.7251 135.886 48.7251C135.438 48.7251 135.034 48.8291 134.674 49.0371C134.322 49.2371 134.042 49.5251 133.834 49.9011C133.634 50.2771 133.534 50.7051 133.534 51.1851C133.534 51.6651 133.634 52.0931 133.834 52.4691C134.042 52.8451 134.322 53.1371 134.674 53.3451C135.034 53.5451 135.438 53.6451 135.886 53.6451ZM140.911 48.0291H141.763V50.8251H145.735V48.0291H146.587V54.3411H145.735V51.5571H141.763V54.3411H140.911V48.0291ZM151.648 54.4011C151.024 54.4011 150.464 54.2651 149.968 53.9931C149.48 53.7211 149.096 53.3411 148.816 52.8531C148.536 52.3571 148.396 51.8011 148.396 51.1851C148.396 50.5691 148.536 50.0171 148.816 49.5291C149.096 49.0411 149.48 48.6611 149.968 48.3891C150.464 48.1171 151.024 47.9811 151.648 47.9811C152.192 47.9811 152.676 48.0891 153.1 48.3051C153.532 48.5131 153.872 48.8211 154.12 49.2291L153.484 49.6611C153.276 49.3491 153.012 49.1171 152.692 48.9651C152.372 48.8051 152.024 48.7251 151.648 48.7251C151.192 48.7251 150.78 48.8291 150.412 49.0371C150.052 49.2371 149.768 49.5251 149.56 49.9011C149.36 50.2771 149.26 50.7051 149.26 51.1851C149.26 51.6731 149.36 52.1051 149.56 52.4811C149.768 52.8491 150.052 53.1371 150.412 53.3451C150.78 53.5451 151.192 53.6451 151.648 53.6451C152.024 53.6451 152.372 53.5691 152.692 53.4171C153.012 53.2651 153.276 53.0331 153.484 52.7211L154.12 53.1531C153.872 53.5611 153.532 53.8731 153.1 54.0891C152.668 54.2971 152.184 54.4011 151.648 54.4011ZM161.04 48.0291L157.884 55.0971C157.628 55.6891 157.332 56.1091 156.996 56.3571C156.66 56.6051 156.256 56.7291 155.784 56.7291C155.48 56.7291 155.196 56.6811 154.932 56.5851C154.668 56.4891 154.44 56.3451 154.248 56.1531L154.644 55.5171C154.964 55.8371 155.348 55.9971 155.796 55.9971C156.084 55.9971 156.328 55.9171 156.528 55.7571C156.736 55.5971 156.928 55.3251 157.104 54.9411L157.38 54.3291L154.56 48.0291H155.448L157.824 53.3931L160.2 48.0291H161.04ZM167.247 48.0291V54.3411H166.395V48.7851H163.371L163.287 50.3451C163.223 51.6571 163.071 52.6651 162.831 53.3691C162.591 54.0731 162.163 54.4251 161.547 54.4251C161.379 54.4251 161.175 54.3931 160.935 54.3291L160.995 53.5971C161.139 53.6291 161.239 53.6451 161.295 53.6451C161.623 53.6451 161.871 53.4931 162.039 53.1891C162.207 52.8851 162.319 52.5091 162.375 52.0611C162.431 51.6131 162.479 51.0211 162.519 50.2851L162.627 48.0291H167.247ZM172.381 50.2611C173.173 50.2691 173.773 50.4451 174.181 50.7891C174.597 51.1331 174.805 51.6291 174.805 52.2771C174.805 52.9491 174.581 53.4651 174.133 53.8251C173.693 54.1851 173.053 54.3611 172.213 54.3531L169.669 54.3411V48.0291H170.521V50.2371L172.381 50.2611ZM172.165 53.7051C172.749 53.7131 173.189 53.5971 173.485 53.3571C173.789 53.1091 173.941 52.7491 173.941 52.2771C173.941 51.8131 173.793 51.4691 173.497 51.2451C173.201 51.0211 172.757 50.9051 172.165 50.8971L170.521 50.8731V53.6811L172.165 53.7051ZM180.237 48.7851H177.849V54.3411H176.997V48.7851H174.609V48.0291H180.237V48.7851ZM183.641 47.9811C184.465 47.9811 185.097 48.1891 185.537 48.6051C185.977 49.0131 186.197 49.6211 186.197 50.4291V54.3411H185.381V53.3571C185.189 53.6851 184.905 53.9411 184.529 54.1251C184.161 54.3091 183.721 54.4011 183.209 54.4011C182.505 54.4011 181.945 54.2331 181.529 53.8971C181.113 53.5611 180.905 53.1171 180.905 52.5651C180.905 52.0291 181.097 51.5971 181.481 51.2691C181.873 50.9411 182.493 50.7771 183.341 50.7771H185.345V50.3931C185.345 49.8491 185.193 49.4371 184.889 49.1571C184.585 48.8691 184.141 48.7251 183.557 48.7251C183.157 48.7251 182.773 48.7931 182.405 48.9291C182.037 49.0571 181.721 49.2371 181.457 49.4691L181.073 48.8331C181.393 48.5611 181.777 48.3531 182.225 48.2091C182.673 48.0571 183.145 47.9811 183.641 47.9811ZM183.341 53.7291C183.821 53.7291 184.233 53.6211 184.577 53.4051C184.921 53.1811 185.177 52.8611 185.345 52.4451V51.4131H183.365C182.285 51.4131 181.745 51.7891 181.745 52.5411C181.745 52.9091 181.885 53.2011 182.165 53.4171C182.445 53.6251 182.837 53.7291 183.341 53.7291ZM195.041 53.5971V55.9251H194.237V54.3411H188.465V48.0291H189.317V53.5971H193.169V48.0291H194.021V53.5971H195.041ZM196.669 48.0291H197.521V53.0451L201.733 48.0291H202.489V54.3411H201.637V49.3251L197.437 54.3411H196.669V48.0291ZM209.778 48.0291V54.3411H208.998V52.2531H207.018H206.778L205.314 54.3411H204.39L205.962 52.1331C205.474 51.9971 205.098 51.7651 204.834 51.4371C204.57 51.1091 204.438 50.6931 204.438 50.1891C204.438 49.4851 204.678 48.9491 205.158 48.5811C205.638 48.2131 206.294 48.0291 207.126 48.0291H209.778ZM205.302 50.2131C205.302 51.1491 205.898 51.6171 207.09 51.6171H208.998V48.7851H207.15C205.918 48.7851 205.302 49.2611 205.302 50.2131ZM48.1803 64.0291H49.0323V69.0451L53.2443 64.0291H54.0003V70.3411H53.1483V65.3251L48.9483 70.3411H48.1803V64.0291ZM59.0906 66.7171H62.2346V67.4611H59.0906V66.7171ZM66.1983 65.5411C67.0783 65.5891 67.7463 65.8291 68.2023 66.2611C68.6663 66.6851 68.8983 67.2411 68.8983 67.9291C68.8983 68.4091 68.7823 68.8371 68.5503 69.2131C68.3183 69.5811 67.9743 69.8731 67.5183 70.0891C67.0623 70.3051 66.5063 70.4131 65.8503 70.4131C65.2423 70.4131 64.6663 70.3171 64.1223 70.1251C63.5863 69.9251 63.1543 69.6611 62.8263 69.3331L63.2463 68.6491C63.5263 68.9371 63.8983 69.1731 64.3623 69.3571C64.8263 69.5331 65.3223 69.6211 65.8503 69.6211C66.5383 69.6211 67.0703 69.4731 67.4463 69.1771C67.8223 68.8731 68.0103 68.4571 68.0103 67.9291C68.0103 67.4091 67.8223 67.0011 67.4463 66.7051C67.0703 66.4091 66.5023 66.2611 65.7423 66.2611H65.1423V65.6251L67.4703 62.7091H63.1743V61.9411H68.5743V62.5531L66.1983 65.5411ZM73.4637 70.4131C72.8157 70.4131 72.2357 70.2411 71.7237 69.8971C71.2197 69.5531 70.8237 69.0611 70.5357 68.4211C70.2557 67.7731 70.1157 67.0131 70.1157 66.1411C70.1157 65.2691 70.2557 64.5131 70.5357 63.8731C70.8237 63.2251 71.2197 62.7291 71.7237 62.3851C72.2357 62.0411 72.8157 61.8691 73.4637 61.8691C74.1117 61.8691 74.6877 62.0411 75.1917 62.3851C75.7037 62.7291 76.1037 63.2251 76.3917 63.8731C76.6797 64.5131 76.8237 65.2691 76.8237 66.1411C76.8237 67.0131 76.6797 67.7731 76.3917 68.4211C76.1037 69.0611 75.7037 69.5531 75.1917 69.8971C74.6877 70.2411 74.1117 70.4131 73.4637 70.4131ZM73.4637 69.6211C73.9517 69.6211 74.3797 69.4851 74.7477 69.2131C75.1237 68.9411 75.4157 68.5451 75.6237 68.0251C75.8317 67.5051 75.9357 66.8771 75.9357 66.1411C75.9357 65.4051 75.8317 64.7771 75.6237 64.2571C75.4157 63.7371 75.1237 63.3411 74.7477 63.0691C74.3797 62.7971 73.9517 62.6611 73.4637 62.6611C72.9757 62.6611 72.5437 62.7971 72.1677 63.0691C71.7997 63.3411 71.5117 63.7371 71.3037 64.2571C71.0957 64.7771 70.9917 65.4051 70.9917 66.1411C70.9917 66.8771 71.0957 67.5051 71.3037 68.0251C71.5117 68.5451 71.7997 68.9411 72.1677 69.2131C72.5437 69.4851 72.9757 69.6211 73.4637 69.6211ZM79.837 66.4411C79.269 66.4411 78.809 66.2331 78.457 65.8171C78.113 65.3931 77.941 64.8411 77.941 64.1611C77.941 63.4811 78.113 62.9331 78.457 62.5171C78.809 62.0931 79.269 61.8811 79.837 61.8811C80.397 61.8811 80.853 62.0891 81.205 62.5051C81.557 62.9211 81.733 63.4731 81.733 64.1611C81.733 64.8491 81.557 65.4011 81.205 65.8171C80.853 66.2331 80.397 66.4411 79.837 66.4411ZM84.925 61.9411H85.633L79.897 70.3411H79.189L84.925 61.9411ZM79.837 65.9011C80.229 65.9011 80.541 65.7491 80.773 65.4451C81.013 65.1331 81.133 64.7051 81.133 64.1611C81.133 63.6171 81.013 63.1931 80.773 62.8891C80.541 62.5771 80.229 62.4211 79.837 62.4211C79.437 62.4211 79.121 62.5771 78.889 62.8891C78.657 63.2011 78.541 63.6251 78.541 64.1611C78.541 64.6971 78.657 65.1211 78.889 65.4331C79.121 65.7451 79.437 65.9011 79.837 65.9011ZM84.985 70.4011C84.425 70.4011 83.969 70.1931 83.617 69.7771C83.265 69.3531 83.089 68.8011 83.089 68.1211C83.089 67.4411 83.265 66.8931 83.617 66.4771C83.969 66.0531 84.425 65.8411 84.985 65.8411C85.553 65.8411 86.009 66.0531 86.353 66.4771C86.705 66.8931 86.881 67.4411 86.881 68.1211C86.881 68.8011 86.705 69.3531 86.353 69.7771C86.009 70.1931 85.553 70.4011 84.985 70.4011ZM84.985 69.8611C85.385 69.8611 85.701 69.7051 85.933 69.3931C86.165 69.0811 86.281 68.6571 86.281 68.1211C86.281 67.5851 86.165 67.1611 85.933 66.8491C85.701 66.5371 85.385 66.3811 84.985 66.3811C84.593 66.3811 84.277 66.5371 84.037 66.8491C83.805 67.1531 83.689 67.5771 83.689 68.1211C83.689 68.6651 83.805 69.0931 84.037 69.4051C84.277 69.7091 84.593 69.8611 84.985 69.8611ZM95.7589 67.0771C96.6149 67.2771 97.0429 67.7931 97.0429 68.6251C97.0429 69.1771 96.8389 69.6011 96.4309 69.8971C96.0229 70.1931 95.4149 70.3411 94.6069 70.3411H91.7389V64.0291H94.5229C95.2429 64.0291 95.8069 64.1691 96.2149 64.4491C96.6229 64.7291 96.8269 65.1291 96.8269 65.6491C96.8269 65.9931 96.7309 66.2891 96.5389 66.5371C96.3549 66.7771 96.0949 66.9571 95.7589 67.0771ZM92.5669 66.8371H94.4629C94.9509 66.8371 95.3229 66.7451 95.5789 66.5611C95.8429 66.3771 95.9749 66.1091 95.9749 65.7571C95.9749 65.4051 95.8429 65.1411 95.5789 64.9651C95.3229 64.7891 94.9509 64.7011 94.4629 64.7011H92.5669V66.8371ZM94.5709 69.6691C95.1149 69.6691 95.5229 69.5811 95.7949 69.4051C96.0669 69.2291 96.2029 68.9531 96.2029 68.5771C96.2029 68.2011 96.0789 67.9251 95.8309 67.7491C95.5829 67.5651 95.1909 67.4731 94.6549 67.4731H92.5669V69.6691H94.5709ZM106.944 64.0291V70.3411H106.092V67.7131C105.364 68.0331 104.648 68.1931 103.944 68.1931C103.184 68.1931 102.592 68.0211 102.168 67.6771C101.744 67.3251 101.532 66.8011 101.532 66.1051V64.0291H102.384V66.0571C102.384 66.5291 102.536 66.8891 102.84 67.1371C103.144 67.3771 103.564 67.4971 104.1 67.4971C104.692 67.4971 105.356 67.3411 106.092 67.0291V64.0291H106.944ZM111.536 63.9811C112.36 63.9811 112.992 64.1891 113.432 64.6051C113.872 65.0131 114.092 65.6211 114.092 66.4291V70.3411H113.276V69.3571C113.084 69.6851 112.8 69.9411 112.424 70.1251C112.056 70.3091 111.616 70.4011 111.104 70.4011C110.4 70.4011 109.84 70.2331 109.424 69.8971C109.008 69.5611 108.8 69.1171 108.8 68.5651C108.8 68.0291 108.992 67.5971 109.376 67.2691C109.768 66.9411 110.388 66.7771 111.236 66.7771H113.24V66.3931C113.24 65.8491 113.088 65.4371 112.784 65.1571C112.48 64.8691 112.036 64.7251 111.452 64.7251C111.052 64.7251 110.668 64.7931 110.3 64.9291C109.932 65.0571 109.616 65.2371 109.352 65.4691L108.968 64.8331C109.288 64.5611 109.672 64.3531 110.12 64.2091C110.568 64.0571 111.04 63.9811 111.536 63.9811ZM111.236 69.7291C111.716 69.7291 112.128 69.6211 112.472 69.4051C112.816 69.1811 113.072 68.8611 113.24 68.4451V67.4131H111.26C110.18 67.4131 109.64 67.7891 109.64 68.5411C109.64 68.9091 109.78 69.2011 110.06 69.4171C110.34 69.6251 110.732 69.7291 111.236 69.7291ZM120.8 64.7851H118.412V70.3411H117.56V64.7851H115.172V64.0291H120.8V64.7851ZM127.259 67.4491H121.979C122.027 68.1051 122.279 68.6371 122.735 69.0451C123.191 69.4451 123.767 69.6451 124.463 69.6451C124.855 69.6451 125.215 69.5771 125.543 69.4411C125.871 69.2971 126.155 69.0891 126.395 68.8171L126.875 69.3691C126.595 69.7051 126.243 69.9611 125.819 70.1371C125.403 70.3131 124.943 70.4011 124.439 70.4011C123.791 70.4011 123.215 70.2651 122.711 69.9931C122.215 69.7131 121.827 69.3291 121.547 68.8411C121.267 68.3531 121.127 67.8011 121.127 67.1851C121.127 66.5691 121.259 66.0171 121.523 65.5291C121.795 65.0411 122.163 64.6611 122.627 64.3891C123.099 64.1171 123.627 63.9811 124.211 63.9811C124.795 63.9811 125.319 64.1171 125.783 64.3891C126.247 64.6611 126.611 65.0411 126.875 65.5291C127.139 66.0091 127.271 66.5611 127.271 67.1851L127.259 67.4491ZM124.211 64.7131C123.603 64.7131 123.091 64.9091 122.675 65.3011C122.267 65.6851 122.035 66.1891 121.979 66.8131H126.455C126.399 66.1891 126.163 65.6851 125.747 65.3011C125.339 64.9091 124.827 64.7131 124.211 64.7131ZM129.217 70.4011C129.041 70.4011 128.889 70.3371 128.761 70.2091C128.641 70.0811 128.581 69.9251 128.581 69.7411C128.581 69.5571 128.641 69.4051 128.761 69.2851C128.889 69.1571 129.041 69.0931 129.217 69.0931C129.393 69.0931 129.545 69.1571 129.673 69.2851C129.801 69.4051 129.865 69.5571 129.865 69.7411C129.865 69.9251 129.801 70.0811 129.673 70.2091C129.545 70.3371 129.393 70.4011 129.217 70.4011Z" fill="#020202"/>
<defs>
<filter id="filter0_d_739:3550" x="0" y="1.52588e-05" width="266.712" height="127.676" filterUnits="userSpaceOnUse" color-interpolation-filters="sRGB">
<feFlood flood-opacity="0" result="BackgroundImageFix"/>
<feColorMatrix in="SourceAlpha" type="matrix" values="0 0 0 0 0 0 0 0 0 0 0 0 0 0 0 0 0 0 127 0" result="hardAlpha"/>
<feOffset/>
<feGaussianBlur stdDeviation="15"/>
<feComposite in2="hardAlpha" operator="out"/>
<feColorMatrix type="matrix" values="0 0 0 0 0.337255 0 0 0 0 0.337255 0 0 0 0 0.337255 0 0 0 0.25 0"/>
<feBlend mode="normal" in2="BackgroundImageFix" result="effect1_dropShadow_739:3550"/>
<feBlend mode="normal" in="SourceGraphic" in2="effect1_dropShadow_739:3550" result="shape"/>
</filter>
</defs>
</svg>
